<?xml version="1.0" encoding="utf-8"?>
<!-- Generator: Adobe Illustrator 27.2.0, SVG Export Plug-In . SVG Version: 6.00 Build 0)  -->
<!DOCTYPE svg PUBLIC "-//W3C//DTD SVG 1.0//EN" "http://www.w3.org/TR/2001/REC-SVG-20010904/DTD/svg10.dtd" [
	<!ENTITY ns_extend "http://ns.adobe.com/Extensibility/1.0/">
	<!ENTITY ns_ai "http://ns.adobe.com/AdobeIllustrator/10.0/">
	<!ENTITY ns_graphs "http://ns.adobe.com/Graphs/1.0/">
	<!ENTITY ns_vars "http://ns.adobe.com/Variables/1.0/">
	<!ENTITY ns_imrep "http://ns.adobe.com/ImageReplacement/1.0/">
	<!ENTITY ns_sfw "http://ns.adobe.com/SaveForWeb/1.0/">
	<!ENTITY ns_custom "http://ns.adobe.com/GenericCustomNamespace/1.0/">
	<!ENTITY ns_adobe_xpath "http://ns.adobe.com/XPath/1.0/">
]>
<svg version="1.0" id="Layer_1" xmlns:x="&ns_extend;" xmlns:i="&ns_ai;" xmlns:graph="&ns_graphs;"
	 xmlns="http://www.w3.org/2000/svg" xmlns:xlink="http://www.w3.org/1999/xlink" x="0px" y="0px" viewBox="0 0 166.1 135.7"
	 style="enable-background:new 0 0 166.1 135.7;" xml:space="preserve">
<style type="text/css">
	.st0{fill:#FFFFFF;}
</style>
<metadata>
	<sfw  xmlns="&ns_sfw;">
		<slices></slices>
		<sliceSourceBounds  bottomLeftOrigin="true" height="131.3" width="160.8" x="-147.5" y="-217.6"></sliceSourceBounds>
	</sfw>
</metadata>
<path class="st0" d="M152,64.1c-18.7-18.7-36.4-36.4-54.1-54c-0.9-0.9-2.3-1.7-2.7-2.9c-0.6-1.6-0.4-3.4-0.6-5.2
	c1.8,0.1,4.1-0.5,5.2,0.4c3.7,3.1,6.9,6.7,10.4,10.1c16.8,16.8,33.6,33.8,50.6,50.5c3.4,3.3,3.4,5.7,0,9.1
	c-19.9,19.7-39.6,39.5-59.4,59.3c-0.6,0.6-1.2,1.5-1.8,1.6c-1.6,0.2-3.3,0-4.9,0c0-1.6-0.5-3.7,0.3-4.7c2.5-3.1,5.5-5.8,8.3-8.6
	C119.2,103.9,135.1,88,152,71c-2.8,0-4.5,0-6.2,0c-45.5,0-91,0-136.5,0c-1.5,0-3.2,0.3-4.4-0.3c-1.1-0.5-2.4-2.1-2.4-3.2
	c0-1.1,1.3-2.7,2.4-3.2c1.2-0.6,2.9-0.3,4.4-0.3c45.3,0,90.6,0,136,0C147.1,64.1,148.9,64.1,152,64.1z"/>
</svg>
